<?xml version="1.0" encoding="UTF-8" standalone="no"?>
<!DOCTYPE svg PUBLIC "-//W3C//DTD SVG 1.1//EN" "http://www.w3.org/Graphics/SVG/1.1/DTD/svg11.dtd">
<svg version="1.1" xmlns="http://www.w3.org/2000/svg" xmlns:xlink="http://www.w3.org/1999/xlink" preserveAspectRatio="xMidYMid meet" viewBox="0 0 18 18" width="18" height="18"><defs><path d="M7.92 0.02L8.21 0.05L8.5 0.1L8.79 0.15L9.07 0.21L9.35 0.29L9.63 0.37L9.9 0.47L10.16 0.57L10.42 0.69L10.68 0.82L10.92 0.95L11.17 1.1L11.4 1.25L11.63 1.41L11.86 1.58L12.07 1.76L12.28 1.95L12.49 2.14L12.68 2.34L12.87 2.55L13.05 2.77L13.22 2.99L13.38 3.22L13.53 3.46L13.68 3.7L13.81 3.95L13.94 4.21L14.05 4.47L14.16 4.73L14.26 5L14.34 5.28L14.42 5.56L14.48 5.84L14.53 6.13L14.57 6.42L14.6 6.71L14.62 7.01L14.63 7.31L14.62 7.61L14.6 7.91L14.57 8.21L14.53 8.5L14.48 8.79L14.42 9.07L14.34 9.35L14.26 9.62L14.16 9.89L14.05 10.16L13.94 10.42L13.81 10.67L13.68 10.92L13.53 11.16L13.38 11.39L18 16.01L16.01 18L11.4 13.38L11.17 13.53L10.92 13.67L10.68 13.81L10.42 13.93L10.16 14.05L9.9 14.16L9.63 14.25L9.35 14.34L9.07 14.41L8.79 14.48L8.5 14.53L8.21 14.57L7.92 14.6L7.62 14.62L7.32 14.62L7.01 14.62L6.72 14.6L6.42 14.57L6.13 14.53L5.84 14.48L5.56 14.41L5.28 14.34L5 14.25L4.73 14.16L4.47 14.05L4.21 13.93L3.95 13.81L3.71 13.67L3.46 13.53L3.23 13.38L3 13.21L2.77 13.04L2.56 12.86L2.35 12.68L2.14 12.48L1.95 12.28L1.76 12.07L1.58 11.85L1.41 11.63L1.25 11.4L1.1 11.16L0.95 10.92L0.82 10.67L0.69 10.42L0.58 10.16L0.47 9.89L0.38 9.62L0.29 9.35L0.22 9.07L0.15 8.79L0.1 8.5L0.06 8.21L0.03 7.91L0.01 7.61L0 7.31L0.01 7.01L0.03 6.71L0.06 6.42L0.1 6.13L0.15 5.84L0.22 5.56L0.29 5.28L0.38 5L0.47 4.73L0.58 4.47L0.69 4.21L0.82 3.95L0.95 3.7L1.1 3.46L1.25 3.22L1.41 2.99L1.58 2.77L1.76 2.55L1.95 2.34L2.14 2.14L2.35 1.95L2.56 1.76L2.77 1.58L3 1.41L3.23 1.25L3.46 1.1L3.71 0.95L3.95 0.82L4.21 0.69L4.47 0.57L4.73 0.47L5 0.37L5.28 0.29L5.56 0.21L5.84 0.15L6.13 0.1L6.42 0.05L6.72 0.02L7.01 0.01L7.32 0L7.62 0.01L7.92 0.02ZM6.95 2.82L6.76 2.83L6.58 2.86L6.41 2.89L6.23 2.93L6.06 2.98L5.89 3.03L5.72 3.09L5.56 3.16L5.4 3.23L5.24 3.3L5.09 3.39L4.94 3.48L4.79 3.57L4.65 3.67L4.51 3.78L4.38 3.89L4.25 4L4.12 4.12L4 4.25L3.89 4.38L3.78 4.51L3.67 4.65L3.57 4.79L3.48 4.94L3.39 5.09L3.31 5.24L3.23 5.4L3.16 5.56L3.09 5.72L3.03 5.89L2.98 6.06L2.93 6.23L2.9 6.4L2.86 6.58L2.84 6.76L2.82 6.94L2.81 7.13L2.8 7.31L2.81 7.5L2.82 7.68L2.84 7.86L2.86 8.04L2.9 8.22L2.93 8.4L2.98 8.57L3.03 8.74L3.09 8.91L3.16 9.07L3.23 9.23L3.31 9.39L3.39 9.54L3.48 9.69L3.57 9.84L3.67 9.98L3.78 10.12L3.89 10.25L4 10.38L4.12 10.5L4.25 10.62L4.38 10.74L4.51 10.85L4.65 10.95L4.79 11.05L4.94 11.15L5.09 11.24L5.24 11.32L5.4 11.4L5.56 11.47L5.72 11.54L5.89 11.59L6.06 11.65L6.23 11.69L6.41 11.73L6.58 11.77L6.76 11.79L6.95 11.81L7.13 11.82L7.32 11.82L7.5 11.82L7.69 11.81L7.87 11.79L8.05 11.77L8.22 11.73L8.4 11.69L8.57 11.65L8.74 11.59L8.91 11.54L9.07 11.47L9.23 11.4L9.39 11.32L9.54 11.24L9.69 11.15L9.84 11.05L9.98 10.95L10.12 10.85L10.25 10.74L10.38 10.62L10.51 10.5L10.63 10.38L10.74 10.25L10.85 10.12L10.96 9.98L11.06 9.84L11.15 9.69L11.24 9.54L11.32 9.39L11.4 9.23L11.47 9.07L11.54 8.91L11.6 8.74L11.65 8.57L11.7 8.4L11.74 8.22L11.77 8.04L11.79 7.86L11.81 7.68L11.82 7.5L11.83 7.31L11.82 7.13L11.81 6.94L11.79 6.76L11.77 6.58L11.74 6.4L11.7 6.23L11.65 6.06L11.6 5.89L11.54 5.72L11.47 5.56L11.4 5.4L11.32 5.24L11.24 5.09L11.15 4.94L11.06 4.79L10.96 4.65L10.85 4.51L10.74 4.38L10.63 4.25L10.51 4.12L10.38 4L10.25 3.89L10.12 3.78L9.98 3.67L9.84 3.57L9.69 3.48L9.54 3.39L9.39 3.3L9.23 3.23L9.07 3.16L8.91 3.09L8.74 3.03L8.57 2.98L8.4 2.93L8.22 2.89L8.05 2.86L7.87 2.83L7.69 2.82L7.5 2.8L7.32 2.8L7.13 2.8L6.95 2.82Z" id="bjH7wbzTE"></path></defs><g><g><g><use xlink:href="#bjH7wbzTE" opacity="1" fill="#ffffff" fill-opacity="1"></use></g></g></g></svg>